<?xml version="1.0" encoding="UTF-8" standalone="no"?>
<svg
   xmlns:dc="http://purl.org/dc/elements/1.1/"
   xmlns:cc="http://creativecommons.org/ns#"
   xmlns:rdf="http://www.w3.org/1999/02/22-rdf-syntax-ns#"
   xmlns:svg="http://www.w3.org/2000/svg"
   xmlns="http://www.w3.org/2000/svg"
   xmlns:sodipodi="http://sodipodi.sourceforge.net/DTD/sodipodi-0.dtd"
   xmlns:inkscape="http://www.inkscape.org/namespaces/inkscape"
   enable-background="new 0 0 55 55"
   height="55px"
   style=""
   version="1.1"
   viewBox="0 0 55 55"
   width="55px"
   x="0px"
   xml:space="preserve"
   y="0px"
   id="svg2"
   inkscape:version="0.48.2 r9819"
   sodipodi:docname="cut.svg"><metadata
     id="metadata23"><rdf:RDF><cc:Work
         rdf:about=""><dc:format>image/svg+xml</dc:format><dc:type
           rdf:resource="http://purl.org/dc/dcmitype/StillImage" /></cc:Work></rdf:RDF></metadata><defs
     id="defs21" /><sodipodi:namedview
     pagecolor="#ffffff"
     bordercolor="#666666"
     borderopacity="1"
     objecttolerance="10"
     gridtolerance="10"
     guidetolerance="10"
     inkscape:pageopacity="0"
     inkscape:pageshadow="2"
     inkscape:window-width="1280"
     inkscape:window-height="746"
     id="namedview19"
     showgrid="false"
     inkscape:zoom="4.2909091"
     inkscape:cx="27.5"
     inkscape:cy="28.828886"
     inkscape:window-x="0"
     inkscape:window-y="26"
     inkscape:window-maximized="1"
     inkscape:current-layer="svg2" /><g
     display="block"
     id="toolbar_x5F_edit"
     style="fill:#ffffff;fill-opacity:1;stroke:#ffffff;stroke-opacity:1;display:block"
     transform="matrix(0.43811489,0,0,0.41725769,0.96752173,1.1040165)">
	<g
   id="g5"
   style="fill:#ffffff;fill-opacity:1;stroke:#ffffff;stroke-opacity:1">
		<g
   id="g7"
   style="fill:#ffffff;fill-opacity:1;stroke:#ffffff;stroke-opacity:1">
			<path
   d="M 32.273,45.355 18.465,19.353 C 14.651,11.454 14.041,7.828 18.324,5.817 c 0,0 11.524,24.763 12.583,26.696 2.487,4.534 5.571,3.145 5.571,3.145 l -4.205,9.697 z"
   style="fill:#ffffff;fill-opacity:1;stroke:#ffffff;stroke-opacity:1"
   id="path9"
   inkscape:connector-curvature="0" />
			<path
   d="m 31.573,42.948 c -0.379,-3.795 2.384,-7.179 6.182,-7.562 l 0,0 c 3.795,-0.382 7.179,2.382 7.562,6.179 l 0,0 c 0.38,3.795 -2.384,7.178 -6.179,7.562 l 0,0 c -3.796,0.38 -7.18,-2.385 -7.565,-6.179 l 0,0 z m 2.946,-0.296 c 0.223,2.167 2.153,3.743 4.323,3.529 l 0,0 c 2.165,-0.223 3.744,-2.153 3.529,-4.321 l 0,0 c -0.222,-2.167 -2.153,-3.742 -4.319,-3.529 l 0,0 c -2.17,0.222 -3.749,2.151 -3.533,4.321 l 0,0 z"
   style="fill:#ffffff;fill-opacity:1;stroke:#ffffff;stroke-opacity:1"
   id="path11"
   inkscape:connector-curvature="0" />
		</g>
		<g
   id="g13"
   style="fill:#ffffff;fill-opacity:1;stroke:#ffffff;stroke-opacity:1">
			<path
   d="M 22.602,45.355 36.41,19.353 c 3.813,-7.899 4.423,-11.525 0.141,-13.536 0,0 -11.524,24.763 -12.583,26.696 -2.487,4.534 -5.57,3.145 -5.57,3.145 l 4.204,9.697 z"
   style="fill:#ffffff;fill-opacity:1;stroke:#ffffff;stroke-opacity:1"
   id="path15"
   inkscape:connector-curvature="0" />
			<path
   d="m 23.301,42.948 c -0.384,3.794 -3.768,6.559 -7.565,6.178 l 0,0 C 11.941,48.742 9.177,45.359 9.558,41.564 l 0,0 c 0.383,-3.797 3.767,-6.561 7.562,-6.179 l 0,0 c 3.798,0.385 6.56,3.768 6.181,7.563 l 0,0 z m -2.946,-0.296 c 0.216,-2.17 -1.363,-4.1 -3.533,-4.321 l 0,0 c -2.167,-0.213 -4.098,1.362 -4.319,3.529 l 0,0 c -0.215,2.168 1.364,4.099 3.53,4.321 l 0,0 c 2.17,0.215 4.1,-1.362 4.322,-3.529 l 0,0 z"
   style="fill:#ffffff;fill-opacity:1;stroke:#ffffff;stroke-opacity:1"
   id="path17"
   inkscape:connector-curvature="0" />
		</g>
	</g>
</g><g
     transform="translate(2.5899659,-1.1725002)"
     id="g3248"
     style="stroke:#ffffff;stroke-opacity:1;fill:#ffffff"><polygon
       points="23.614,20.318 15.101,28.826 23.614,28.824 "
       id="polygon3250"
       style="fill:#ffffff;stroke:#ffffff;stroke-opacity:1" /><polygon
       points="26.601,19.444 26.601,31.812 14.227,31.812 14.227,49.417 37.936,49.417 37.936,19.444 "
       id="polygon3252"
       style="fill:#ffffff;stroke:#ffffff;stroke-opacity:1" /></g><polygon
     transform="translate(2.5899659,-1.1725002)"
     points="22.727,35.914 43.449,35.914 43.449,8.928 32.113,8.928 22.727,18.311 "
     id="polygon3254"
     style="fill:#ffffff;stroke:#000000;stroke-width:3;stroke-opacity:1" /><polyline
     transform="translate(2.5899659,-1.1725002)"
     points="22.727,18.311 32.113,18.311 32.113,8.928    "
     id="polyline3256"
     style="fill:none;stroke:#000000;stroke-width:2.98670005999999999;stroke-opacity:1" /></svg>